# xmcd
#
# Track frame offsets: 
#        150
#        17477
#        26199
#        40301
#        53982
#        71894
#        78913
#        99000
#        110416
#        124108
#        132895
#        161436
#        204252
#        221389
#        238639
#        245488
#        263185
#        295262
#        317933
#        330170
#
# Disc length: 4741 seconds
#
# Revision: 0
# Processed by: cddbd v1.5.2PL0 Copyright (c) Steve Scherf et al.
# Submitted via: ExactAudioCopy v0.95b4
#
DISCID=14128314
DTITLE=Musical - Tanz der Vamire
DYEAR=1900
DGENRE=Musical
TTITLE0=Knoblauch
TTITLE1=Eine schöne Tochter ist ein Segen
TTITLE2=Nie gesehen
TTITLE3=Gott ist tot
TTITLE4=Wahrheit
TTITLE5=Einladung zu Ball
TTITLE6=Draußen ist die Freiheit I
TTITLE7=Die roten Stiefel
TTITLE8=Tot zu sein ist komisch
TTITLE9=Finale erster Akt
TTITLE10=Totale Finsternis
TTITLE11=Carpe Noctem
TTITLE12=Für Sarah
TTITLE13=Alfred and Herbert
TTITLE14=He, ho, Professor
TTITLE15=Ewigkeit
TTITLE16=Die unstillbare Gier
TTITLE17=Im Ballsaal
TTITLE18=Draußen ist Freiheit II
TTITLE19=Wir laden die Vampire zum Tanz
EXTD=
EXTT0=
EXTT1=
EXTT2=
EXTT3=
EXTT4=
EXTT5=
EXTT6=
EXTT7=
EXTT8=
EXTT9=
EXTT10=
EXTT11=
EXTT12=
EXTT13=
EXTT14=
EXTT15=
EXTT16=
EXTT17=
EXTT18=
EXTT19=
PLAYORDER=
